TITLE ""
FILE "1Q_t_0729-0738.mp3" MP3
  TRACK 01 AUDIO
    TITLE "1Q_t_0729-0738_01"
    INDEX 01 00:00:00
  TRACK 02 AUDIO
    TITLE "1Q_t_0729-0738_02"
    INDEX 01 00:01:12
  TRACK 03 AUDIO
    TITLE "1Q_t_0729-0738_03"
    INDEX 01 00:01:55
  TRACK 04 AUDIO
    TITLE "1Q_t_0729-0738_04"
    INDEX 01 00:02:74
  TRACK 05 AUDIO
    TITLE "1Q_t_0729-0738_05"
    INDEX 01 00:03:09
  TRACK 06 AUDIO
    TITLE "1Q_t_0729-0738_06"
    INDEX 01 00:04:69
  TRACK 07 AUDIO
    TITLE "1Q_t_0729-0738_07"
    INDEX 01 00:05:02
  TRACK 08 AUDIO
    TITLE "1Q_t_0729-0738_08"
    INDEX 01 00:10:58
  TRACK 09 AUDIO
    TITLE "1Q_t_0729-0738_09"
    INDEX 01 00:11:30
  TRACK 10 AUDIO
    TITLE "1Q_t_0729-0738_10"
    INDEX 01 00:12:37
  TRACK 11 AUDIO
    TITLE "1Q_t_0729-0738_11"
    INDEX 01 00:12:47
  TRACK 12 AUDIO
    TITLE "1Q_t_0729-0738_12"
    INDEX 01 00:14:44
  TRACK 13 AUDIO
    TITLE "1Q_t_0729-0738_13"
    INDEX 01 00:14:50
  TRACK 14 AUDIO
    TITLE "1Q_t_0729-0738_14"
    INDEX 01 00:20:13
  TRACK 15 AUDIO
    TITLE "1Q_t_0729-0738_15"
    INDEX 01 00:20:62
  TRACK 16 AUDIO
    TITLE "1Q_t_0729-0738_16"
    INDEX 01 00:21:67
  TRACK 17 AUDIO
    TITLE "1Q_t_0729-0738_17"
    INDEX 01 00:21:75
  TRACK 18 AUDIO
    TITLE "1Q_t_0729-0738_18"
    INDEX 01 00:24:11
  TRACK 19 AUDIO
    TITLE "1Q_t_0729-0738_19"
    INDEX 01 00:24:19
  TRACK 20 AUDIO
    TITLE "1Q_t_0729-0738_20"
    INDEX 01 00:28:61
  TRACK 21 AUDIO
    TITLE "1Q_t_0729-0738_21"
    INDEX 01 00:29:34
  TRACK 22 AUDIO
    TITLE "1Q_t_0729-0738_22"
    INDEX 01 00:30:39
  TRACK 23 AUDIO
    TITLE "1Q_t_0729-0738_23"
    INDEX 01 00:30:49
  TRACK 24 AUDIO
    TITLE "1Q_t_0729-0738_24"
    INDEX 01 00:31:56
  TRACK 25 AUDIO
    TITLE "1Q_t_0729-0738_25"
    INDEX 01 00:31:62
  TRACK 26 AUDIO
    TITLE "1Q_t_0729-0738_26"
    INDEX 01 00:36:71
  TRACK 27 AUDIO
    TITLE "1Q_t_0729-0738_27"
    INDEX 01 00:37:45
  TRACK 28 AUDIO
    TITLE "1Q_t_0729-0738_28"
    INDEX 01 00:38:70
  TRACK 29 AUDIO
    TITLE "1Q_t_0729-0738_29"
    INDEX 01 00:39:03
  TRACK 30 AUDIO
    TITLE "1Q_t_0729-0738_30"
    INDEX 01 00:40:33
  TRACK 31 AUDIO
    TITLE "1Q_t_0729-0738_31"
    INDEX 01 00:40:39
  TRACK 32 AUDIO
    TITLE "1Q_t_0729-0738_32"
    INDEX 01 00:44:19
  TRACK 33 AUDIO
    TITLE "1Q_t_0729-0738_33"
    INDEX 01 00:44:66
  TRACK 34 AUDIO
    TITLE "1Q_t_0729-0738_34"
    INDEX 01 00:46:08
  TRACK 35 AUDIO
    TITLE "1Q_t_0729-0738_35"
    INDEX 01 00:46:16
  TRACK 36 AUDIO
    TITLE "1Q_t_0729-0738_36"
    INDEX 01 00:49:40
  TRACK 37 AUDIO
    TITLE "1Q_t_0729-0738_37"
    INDEX 01 00:49:48
  TRACK 38 AUDIO
    TITLE "1Q_t_0729-0738_38"
    INDEX 01 00:53:52
  TRACK 39 AUDIO
    TITLE "1Q_t_0729-0738_39"
    INDEX 01 00:54:26
  TRACK 40 AUDIO
    TITLE "1Q_t_0729-0738_40"
    INDEX 01 00:55:27
  TRACK 41 AUDIO
    TITLE "1Q_t_0729-0738_41"
    INDEX 01 00:55:35
  TRACK 42 AUDIO
    TITLE "1Q_t_0729-0738_42"
    INDEX 01 00:57:46
  TRACK 43 AUDIO
    TITLE "1Q_t_0729-0738_43"
    INDEX 01 00:57:53
  TRACK 44 AUDIO
    TITLE "1Q_t_0729-0738_44"
    INDEX 01 01:04:12
  TRACK 45 AUDIO
    TITLE "1Q_t_0729-0738_45"
    INDEX 01 01:04:59
  TRACK 46 AUDIO
    TITLE "1Q_t_0729-0738_46"
    INDEX 01 01:06:15
  TRACK 47 AUDIO
    TITLE "1Q_t_0729-0738_47"
    INDEX 01 01:06:23
  TRACK 48 AUDIO
    TITLE "1Q_t_0729-0738_48"
    INDEX 01 01:08:26
  TRACK 49 AUDIO
    TITLE "1Q_t_0729-0738_49"
    INDEX 01 01:08:34
  TRACK 50 AUDIO
    TITLE "1Q_t_0729-0738_50"
    INDEX 01 01:15:14
  TRACK 51 AUDIO
    TITLE "1Q_t_0729-0738_51"
    INDEX 01 01:15:61
  TRACK 52 AUDIO
    TITLE "1Q_t_0729-0738_52"
    INDEX 01 01:17:07
  TRACK 53 AUDIO
    TITLE "1Q_t_0729-0738_53"
    INDEX 01 01:17:15
  TRACK 54 AUDIO
    TITLE "1Q_t_0729-0738_54"
    INDEX 01 01:19:16
  TRACK 55 AUDIO
    TITLE "1Q_t_0729-0738_55"
    INDEX 01 01:19:22
  TRACK 56 AUDIO
    TITLE "1Q_t_0729-0738_56"
    INDEX 01 01:24:33
  TRACK 57 AUDIO
    TITLE "1Q_t_0729-0738_57"
    INDEX 01 01:25:05
  TRACK 58 AUDIO
    TITLE "1Q_t_0729-0738_58"
    INDEX 01 01:26:30
  TRACK 59 AUDIO
    TITLE "1Q_t_0729-0738_59"
    INDEX 01 01:26:39
  TRACK 60 AUDIO
    TITLE "1Q_t_0729-0738_60"
    INDEX 01 01:27:66
  TRACK 61 AUDIO
    TITLE "1Q_t_0729-0738_61"
    INDEX 01 01:27:74
  TRACK 62 AUDIO
    TITLE "1Q_t_0729-0738_62"
    INDEX 01 01:35:23
